# xmcd
#
# Track frame offsets:
#	150
#	16132
#	32984
#	49528
#	62831
#	79363
#	95654
#	111205
#	125974
#	143889
#	157130
#	175594
#	191672
#	209466
#
# Disc length: 2988 seconds
#
# Revision: 1
# Processed by: cddbd v1.5.2PL0 Copyright (c) Steve Scherf et al.
# Submitted via: audiograbber 1.83.01
#
DISCID=cd0baa0e
DTITLE=Eli Young Band - Eli Young Band
DYEAR=2002
DGENRE=Country
TTITLE0=When You Come Down My Way
TTITLE1=Guardian Angel
TTITLE2=When We Were Innocent
TTITLE3=Show You How To Love Again
TTITLE4=I Still Think It's Me
TTITLE5=Know I Would
TTITLE6=Uncertain
TTITLE7=Drive Away
TTITLE8=We Could Be Forever
TTITLE9=I'm In Love
TTITLE10=San Antone
TTITLE11=Down On Padre
TTITLE12=Back of My Mind
TTITLE13=Here's To You
EXTD=
EXTT0=
EXTT1=
EXTT2=
EXTT3=
EXTT4=
EXTT5=
EXTT6=
EXTT7=
EXTT8=
EXTT9=
EXTT10=
EXTT11=
EXTT12=
EXTT13=
PLAYORDER=
